<svg width="1955" height="73" viewBox="0 0 1955 73" fill="none" xmlns="http://www.w3.org/2000/svg">
<g clip-path="url(#clip0_6_136)">
<g clip-path="url(#clip1_6_136)">
<rect width="977.428" height="977.754" fill="url(#paint0_linear_6_136)"/>
<path d="M814.523 0.163086H651.619V163.068H814.523V0.163086Z" fill="url(#paint1_linear_6_136)"/>
<path d="M814.523 0.163086V63.6959C808.708 74.3662 797.418 81.6154 784.419 81.6154V47.3891C784.419 66.2698 769.073 81.6154 750.192 81.6154V47.3891C750.192 66.2698 734.847 81.6154 715.95 81.6154V47.3891C715.95 66.2698 700.62 81.6154 681.723 81.6154V47.3891C681.723 64.8688 668.577 79.3348 651.619 81.3548V0.163086H814.523Z" fill="#F4F4F4"/>
<path d="M977.428 0.163086H814.523V163.068H977.428V0.163086Z" fill="url(#paint2_linear_6_136)"/>
<path d="M845.068 20.5261H855.25L850.167 29.3556L845.068 38.1687L839.986 29.3556L834.887 20.5261H845.068Z" fill="#F4F4F4"/>
<path d="M865.432 20.5261H875.613L870.53 29.3556L865.432 38.1687L860.349 29.3556L855.25 20.5261H865.432Z" fill="#F4F4F4"/>
<path d="M885.794 20.5261H895.976L890.893 29.3556L885.794 38.1687L880.712 29.3556L875.613 20.5261H885.794Z" fill="#F4F4F4"/>
<path d="M906.157 20.5261H916.339L911.256 29.3556L906.157 38.1687L901.075 29.3556L895.976 20.5261H906.157Z" fill="#F4F4F4"/>
<path d="M926.52 20.5261H936.701L931.619 29.3556L926.52 38.1687L921.437 29.3556L916.338 20.5261H926.52Z" fill="#F4F4F4"/>
<path d="M946.884 20.5261H957.065L951.983 29.3556L946.884 38.1687L941.801 29.3556L936.702 20.5261H946.884Z" fill="#F4F4F4"/>
<path d="M845.068 38.1686H855.25L850.167 46.9817L845.068 55.7949L839.986 46.9817L834.887 38.1686H845.068Z" fill="#F4F4F4"/>
<path d="M865.432 38.1686H875.613L870.53 46.9817L865.432 55.7949L860.349 46.9817L855.25 38.1686H865.432Z" fill="#F4F4F4"/>
<path d="M885.794 38.1686H895.976L890.893 46.9817L885.794 55.7949L880.712 46.9817L875.613 38.1686H885.794Z" fill="#F4F4F4"/>
<path d="M906.157 38.1686H916.339L911.256 46.9817L906.157 55.7949L901.075 46.9817L895.976 38.1686H906.157Z" fill="#F4F4F4"/>
<path d="M926.52 38.1686H936.701L931.619 46.9817L926.52 55.7949L921.437 46.9817L916.338 38.1686H926.52Z" fill="#F4F4F4"/>
<path d="M946.884 38.1686H957.065L951.983 46.9817L946.884 55.7949L941.801 46.9817L936.702 38.1686H946.884Z" fill="#F4F4F4"/>
<path d="M845.068 55.7948H855.25L850.167 64.6242L845.068 73.4374L839.986 64.6242L834.887 55.7948H845.068Z" fill="#F4F4F4"/>
<path d="M865.432 55.7948H875.613L870.53 64.6242L865.432 73.4374L860.349 64.6242L855.25 55.7948H865.432Z" fill="#F4F4F4"/>
<path d="M885.794 55.7948H895.976L890.893 64.6242L885.794 73.4374L880.712 64.6242L875.613 55.7948H885.794Z" fill="#F4F4F4"/>
<path d="M906.157 55.7948H916.339L911.256 64.6242L906.157 73.4374L901.075 64.6242L895.976 55.7948H906.157Z" fill="#F4F4F4"/>
<path d="M926.52 55.7948H936.701L931.619 64.6242L926.52 73.4374L921.437 64.6242L916.338 55.7948H926.52Z" fill="#F4F4F4"/>
<path d="M946.884 55.7948H957.065L951.983 64.6242L946.884 73.4374L941.801 64.6242L936.702 55.7948H946.884Z" fill="#F4F4F4"/>
<path d="M325.809 0H162.905V162.905H325.809V0Z" fill="url(#paint3_linear_6_136)"/>
<path d="M183.398 61.1054H224.108C224.108 53.6117 218.031 47.5354 210.538 47.5354H183.398V61.1054Z" fill="#F4F4F4"/>
<path d="M183.398 34.0471H224.108C224.108 26.5535 218.031 20.4772 210.538 20.4772H183.398V34.0471Z" fill="#F4F4F4"/>
<path d="M305.445 61.1054H264.736C264.736 53.6117 270.812 47.5354 278.306 47.5354H305.445V61.1054Z" fill="#F4F4F4"/>
<path d="M305.445 34.0471H264.736C264.736 26.5535 270.812 20.4772 278.306 20.4772H305.445V34.0471Z" fill="#F4F4F4"/>
<path d="M651.619 0H488.714V162.905H651.619V0Z" fill="url(#paint4_linear_6_136)"/>
<path d="M580.967 92.2369C579.712 90.9825 578.279 89.9725 576.764 89.2557C571.078 86.5352 564.073 87.5452 559.382 92.2369L580.983 70.6357C575.004 76.6143 575.004 86.2746 580.967 92.2369Z" fill="#F4F4F4"/>
<path d="M628.339 62.8162C627.769 65.6833 626.384 68.4201 624.169 70.6519C625.749 69.0717 627.59 67.9151 629.561 67.182C629.203 65.6996 628.795 64.2497 628.339 62.8162Z" fill="#F4F4F4"/>
<path d="M619.95 46.0694C614.265 43.3489 607.26 44.3589 602.568 49.0506L613.369 38.25C615.829 40.7099 618.028 43.3163 619.95 46.0694Z" fill="#F4F4F4"/>
<path d="M602.568 92.2369C607.276 87.529 614.281 86.5352 619.95 89.2557C621.482 89.9888 622.899 90.9825 624.169 92.2369C618.207 86.2746 618.207 76.5981 624.169 70.6357C618.207 76.5981 608.531 76.5981 602.568 70.6357C603.823 71.8901 604.833 73.3237 605.549 74.855C608.27 80.5403 607.276 87.5452 602.568 92.2369Z" fill="#F4F4F4"/>
<path d="M602.568 70.6518C601.314 69.3974 599.88 68.3874 598.365 67.6707C592.68 64.9502 585.675 65.9602 580.983 70.6518L602.585 49.0507C596.606 55.013 596.59 64.6732 602.568 70.6518Z" fill="#F4F4F4"/>
<path d="M580.983 70.6519L559.382 92.253C564.09 87.5451 565.067 80.5565 562.363 74.8711C561.63 73.3561 560.636 71.9225 559.366 70.6519C565.328 76.6142 575.005 76.6142 580.983 70.6519Z" fill="#F4F4F4"/>
<path d="M516.163 70.6519C514.909 69.3975 513.475 68.3875 511.96 67.6707C511.569 67.4915 511.162 67.3123 510.755 67.1657C511.097 65.7159 511.521 64.266 511.993 62.8162C512.563 65.6833 513.948 68.4201 516.163 70.6519Z" fill="#F4F4F4"/>
<path d="M613.369 38.2502L602.568 49.0507C607.276 44.3428 608.254 37.3542 605.549 31.6688C608.303 33.6074 610.909 35.8066 613.369 38.2502Z" fill="#F4F4F4"/>
<path d="M559.366 27.4493C558.111 26.195 556.678 25.185 555.163 24.4682C553.99 23.9143 552.752 23.507 551.498 23.2627C552.947 22.8065 554.43 22.383 555.896 22.0409C556.629 24.012 557.786 25.8692 559.366 27.4493Z" fill="#F4F4F4"/>
<path d="M588.803 23.2629C585.936 23.8331 583.199 25.2178 580.983 27.4496C582.564 25.8694 583.72 24.0286 584.453 22.0737C585.903 22.3995 587.353 22.8231 588.803 23.2629Z" fill="#F4F4F4"/>
<path d="M537.765 49.0504C536.511 47.7961 535.077 46.7861 533.562 46.0693C529.392 44.0818 524.521 44.0981 520.367 46.0856C522.322 43.3488 524.521 40.726 526.981 38.2498C529.44 35.79 532.08 33.5745 534.833 31.6196C532.08 37.305 533.057 44.3425 537.765 49.0504Z" fill="#F4F4F4"/>
<path d="M559.365 70.6518C558.111 69.3974 556.677 68.3874 555.162 67.6707C549.477 64.9502 542.472 65.9602 537.78 70.6518C542.488 65.9439 543.466 58.9553 540.762 53.2699C540.029 51.7549 539.035 50.3213 537.764 49.0507C543.726 55.013 553.403 55.013 559.382 49.0507C553.403 55.013 553.403 64.6732 559.365 70.6518Z" fill="#F4F4F4"/>
<path d="M537.764 92.2369C536.51 90.9825 535.076 89.9725 533.561 89.2557C527.876 86.5352 520.871 87.5452 516.179 92.2369C520.887 87.529 521.865 80.5403 519.161 74.855C518.427 73.34 517.434 71.9064 516.163 70.6357C522.125 76.5981 531.802 76.5981 537.781 70.6357C531.818 76.6143 531.802 86.2746 537.764 92.2369Z" fill="#F4F4F4"/>
<path d="M580.967 49.0507C579.713 47.7964 578.279 46.7864 576.764 46.0696C571.079 43.3491 564.074 44.3591 559.382 49.0507C564.09 44.3428 565.067 37.3542 562.363 31.6688C561.63 30.1538 560.636 28.7202 559.366 27.4496C565.328 33.4119 575.005 33.4119 580.983 27.4496C575.005 33.4119 575.005 43.0721 580.967 49.0507Z" fill="#F4F4F4"/>
<path d="M602.568 49.0507L580.967 70.6518C585.675 65.9439 586.652 58.9553 583.948 53.2699C583.215 51.7549 582.221 50.3213 580.951 49.0507C586.929 55.013 596.606 55.013 602.568 49.0507Z" fill="#F4F4F4"/>
<path d="M162.905 -0.000366211H0V162.904H162.905V-0.000366211Z" fill="url(#paint5_linear_6_136)"/>
<path d="M94.3541 134.364V85.5411C80.0999 85.5411 68.5663 97.091 68.5663 111.329V134.364H20.3628L50.9074 81.4522L81.452 28.5408L111.997 81.4522L142.541 134.364H94.3541Z" fill="#F4F4F4"/>
<path d="M488.714 0H325.809V162.905H488.714V0Z" fill="url(#paint6_linear_6_136)"/>
<path d="M407.262 0H488.714L447.988 40.7099L407.262 81.436L366.535 40.7099L325.809 0H407.262Z" fill="#F4F4F4"/>
</g>
<g clip-path="url(#clip2_6_136)">
<rect width="977.428" height="977.754" transform="translate(977.428)" fill="url(#paint7_linear_6_136)"/>
<path d="M1791.95 0.163086H1629.05V163.068H1791.95V0.163086Z" fill="url(#paint8_linear_6_136)"/>
<path d="M1791.95 0.163086V63.6959C1786.14 74.3662 1774.85 81.6154 1761.85 81.6154V47.3891C1761.85 66.2698 1746.5 81.6154 1727.62 81.6154V47.3891C1727.62 66.2698 1712.27 81.6154 1693.38 81.6154V47.3891C1693.38 66.2698 1678.05 81.6154 1659.15 81.6154V47.3891C1659.15 64.8688 1646 79.3348 1629.05 81.3548V0.163086H1791.95Z" fill="#F4F4F4"/>
<path d="M1954.86 0.163086H1791.95V163.068H1954.86V0.163086Z" fill="url(#paint9_linear_6_136)"/>
<path d="M1822.5 20.5261H1832.68L1827.59 29.3556L1822.5 38.1687L1817.41 29.3556L1812.31 20.5261H1822.5Z" fill="#F4F4F4"/>
<path d="M1842.86 20.5261H1853.04L1847.96 29.3556L1842.86 38.1687L1837.78 29.3556L1832.68 20.5261H1842.86Z" fill="#F4F4F4"/>
<path d="M1863.22 20.5261H1873.4L1868.32 29.3556L1863.22 38.1687L1858.14 29.3556L1853.04 20.5261H1863.22Z" fill="#F4F4F4"/>
<path d="M1883.58 20.5261H1893.77L1888.68 29.3556L1883.58 38.1687L1878.5 29.3556L1873.4 20.5261H1883.58Z" fill="#F4F4F4"/>
<path d="M1903.95 20.5261H1914.13L1909.05 29.3556L1903.95 38.1687L1898.86 29.3556L1893.77 20.5261H1903.95Z" fill="#F4F4F4"/>
<path d="M1924.31 20.5261H1934.49L1929.41 29.3556L1924.31 38.1687L1919.23 29.3556L1914.13 20.5261H1924.31Z" fill="#F4F4F4"/>
<path d="M1822.5 38.1686H1832.68L1827.59 46.9817L1822.5 55.7949L1817.41 46.9817L1812.31 38.1686H1822.5Z" fill="#F4F4F4"/>
<path d="M1842.86 38.1686H1853.04L1847.96 46.9817L1842.86 55.7949L1837.78 46.9817L1832.68 38.1686H1842.86Z" fill="#F4F4F4"/>
<path d="M1863.22 38.1686H1873.4L1868.32 46.9817L1863.22 55.7949L1858.14 46.9817L1853.04 38.1686H1863.22Z" fill="#F4F4F4"/>
<path d="M1883.58 38.1686H1893.77L1888.68 46.9817L1883.58 55.7949L1878.5 46.9817L1873.4 38.1686H1883.58Z" fill="#F4F4F4"/>
<path d="M1903.95 38.1686H1914.13L1909.05 46.9817L1903.95 55.7949L1898.86 46.9817L1893.77 38.1686H1903.95Z" fill="#F4F4F4"/>
<path d="M1924.31 38.1686H1934.49L1929.41 46.9817L1924.31 55.7949L1919.23 46.9817L1914.13 38.1686H1924.31Z" fill="#F4F4F4"/>
<path d="M1822.5 55.7948H1832.68L1827.59 64.6242L1822.5 73.4374L1817.41 64.6242L1812.31 55.7948H1822.5Z" fill="#F4F4F4"/>
<path d="M1842.86 55.7948H1853.04L1847.96 64.6242L1842.86 73.4374L1837.78 64.6242L1832.68 55.7948H1842.86Z" fill="#F4F4F4"/>
<path d="M1863.22 55.7948H1873.4L1868.32 64.6242L1863.22 73.4374L1858.14 64.6242L1853.04 55.7948H1863.22Z" fill="#F4F4F4"/>
<path d="M1883.58 55.7948H1893.77L1888.68 64.6242L1883.58 73.4374L1878.5 64.6242L1873.4 55.7948H1883.58Z" fill="#F4F4F4"/>
<path d="M1903.95 55.7948H1914.13L1909.05 64.6242L1903.95 73.4374L1898.86 64.6242L1893.77 55.7948H1903.95Z" fill="#F4F4F4"/>
<path d="M1924.31 55.7948H1934.49L1929.41 64.6242L1924.31 73.4374L1919.23 64.6242L1914.13 55.7948H1924.31Z" fill="#F4F4F4"/>
<path d="M1303.24 0H1140.33V162.905H1303.24V0Z" fill="url(#paint10_linear_6_136)"/>
<path d="M1160.83 61.1054H1201.54C1201.54 53.6117 1195.46 47.5354 1187.97 47.5354H1160.83V61.1054Z" fill="#F4F4F4"/>
<path d="M1160.83 34.0471H1201.54C1201.54 26.5535 1195.46 20.4772 1187.97 20.4772H1160.83V34.0471Z" fill="#F4F4F4"/>
<path d="M1282.87 61.1054H1242.16C1242.16 53.6117 1248.24 47.5354 1255.73 47.5354H1282.87V61.1054Z" fill="#F4F4F4"/>
<path d="M1282.87 34.0471H1242.16C1242.16 26.5535 1248.24 20.4772 1255.73 20.4772H1282.87V34.0471Z" fill="#F4F4F4"/>
<path d="M1629.05 0H1466.14V162.905H1629.05V0Z" fill="url(#paint11_linear_6_136)"/>
<path d="M1558.39 92.2369C1557.14 90.9825 1555.71 89.9725 1554.19 89.2557C1548.51 86.5352 1541.5 87.5452 1536.81 92.2369L1558.41 70.6357C1552.43 76.6143 1552.43 86.2746 1558.39 92.2369Z" fill="#F4F4F4"/>
<path d="M1605.77 62.8162C1605.2 65.6833 1603.81 68.4201 1601.6 70.6519C1603.18 69.0717 1605.02 67.9151 1606.99 67.182C1606.63 65.6996 1606.22 64.2497 1605.77 62.8162Z" fill="#F4F4F4"/>
<path d="M1597.38 46.0694C1591.69 43.3489 1584.69 44.3589 1580 49.0506L1590.8 38.25C1593.26 40.7099 1595.46 43.3163 1597.38 46.0694Z" fill="#F4F4F4"/>
<path d="M1580 92.2369C1584.7 87.529 1591.71 86.5352 1597.38 89.2557C1598.91 89.9888 1600.33 90.9825 1601.6 92.2369C1595.63 86.2746 1595.63 76.5981 1601.6 70.6357C1595.63 76.5981 1585.96 76.5981 1580 70.6357C1581.25 71.8901 1582.26 73.3237 1582.98 74.855C1585.7 80.5403 1584.7 87.5452 1580 92.2369Z" fill="#F4F4F4"/>
<path d="M1580 70.6518C1578.74 69.3974 1577.31 68.3874 1575.79 67.6707C1570.11 64.9502 1563.1 65.9602 1558.41 70.6518L1580.01 49.0507C1574.03 55.013 1574.02 64.6732 1580 70.6518Z" fill="#F4F4F4"/>
<path d="M1558.41 70.6519L1536.81 92.253C1541.52 87.5451 1542.5 80.5565 1539.79 74.8711C1539.06 73.3561 1538.06 71.9225 1536.79 70.6519C1542.76 76.6142 1552.43 76.6142 1558.41 70.6519Z" fill="#F4F4F4"/>
<path d="M1493.59 70.6519C1492.34 69.3975 1490.9 68.3875 1489.39 67.6707C1489 67.4915 1488.59 67.3123 1488.18 67.1657C1488.52 65.7159 1488.95 64.266 1489.42 62.8162C1489.99 65.6833 1491.38 68.4201 1493.59 70.6519Z" fill="#F4F4F4"/>
<path d="M1590.8 38.2502L1580 49.0507C1584.7 44.3428 1585.68 37.3542 1582.98 31.6688C1585.73 33.6074 1588.34 35.8066 1590.8 38.2502Z" fill="#F4F4F4"/>
<path d="M1536.79 27.4493C1535.54 26.195 1534.11 25.185 1532.59 24.4682C1531.42 23.9143 1530.18 23.507 1528.92 23.2627C1530.37 22.8065 1531.86 22.383 1533.32 22.0409C1534.06 24.012 1535.21 25.8692 1536.79 27.4493Z" fill="#F4F4F4"/>
<path d="M1566.23 23.2629C1563.36 23.8331 1560.63 25.2178 1558.41 27.4496C1559.99 25.8694 1561.15 24.0286 1561.88 22.0737C1563.33 22.3995 1564.78 22.8231 1566.23 23.2629Z" fill="#F4F4F4"/>
<path d="M1515.19 49.0504C1513.94 47.7961 1512.5 46.7861 1510.99 46.0693C1506.82 44.0818 1501.95 44.0981 1497.79 46.0856C1499.75 43.3488 1501.95 40.726 1504.41 38.2498C1506.87 35.79 1509.51 33.5745 1512.26 31.6196C1509.51 37.305 1510.48 44.3425 1515.19 49.0504Z" fill="#F4F4F4"/>
<path d="M1536.79 70.6518C1535.54 69.3974 1534.11 68.3874 1532.59 67.6707C1526.9 64.9502 1519.9 65.9602 1515.21 70.6518C1519.92 65.9439 1520.89 58.9553 1518.19 53.2699C1517.46 51.7549 1516.46 50.3213 1515.19 49.0507C1521.15 55.013 1530.83 55.013 1536.81 49.0507C1530.83 55.013 1530.83 64.6732 1536.79 70.6518Z" fill="#F4F4F4"/>
<path d="M1515.19 92.2369C1513.94 90.9825 1512.5 89.9725 1510.99 89.2557C1505.3 86.5352 1498.3 87.5452 1493.61 92.2369C1498.32 87.529 1499.29 80.5403 1496.59 74.855C1495.86 73.34 1494.86 71.9064 1493.59 70.6357C1499.55 76.5981 1509.23 76.5981 1515.21 70.6357C1509.25 76.6143 1509.23 86.2746 1515.19 92.2369Z" fill="#F4F4F4"/>
<path d="M1558.39 49.0507C1557.14 47.7964 1555.71 46.7864 1554.19 46.0696C1548.51 43.3491 1541.5 44.3591 1536.81 49.0507C1541.52 44.3428 1542.5 37.3542 1539.79 31.6688C1539.06 30.1538 1538.06 28.7202 1536.79 27.4496C1542.76 33.4119 1552.43 33.4119 1558.41 27.4496C1552.43 33.4119 1552.43 43.0721 1558.39 49.0507Z" fill="#F4F4F4"/>
<path d="M1580 49.0507L1558.39 70.6518C1563.1 65.9439 1564.08 58.9553 1561.38 53.2699C1560.64 51.7549 1559.65 50.3213 1558.38 49.0507C1564.36 55.013 1574.03 55.013 1580 49.0507Z" fill="#F4F4F4"/>
<path d="M1140.33 -0.00012207H977.428V162.905H1140.33V-0.00012207Z" fill="url(#paint12_linear_6_136)"/>
<path d="M1071.78 134.364V85.5411C1057.53 85.5411 1045.99 97.091 1045.99 111.329V134.364H997.791L1028.34 81.4522L1058.88 28.5408L1089.42 81.4522L1119.97 134.364H1071.78Z" fill="#F4F4F4"/>
<path d="M1466.14 0H1303.24V162.905H1466.14V0Z" fill="url(#paint13_linear_6_136)"/>
<path d="M1384.69 0H1466.14L1425.42 40.7099L1384.69 81.436L1343.96 40.7099L1303.24 0H1384.69Z" fill="#F4F4F4"/>
</g>
</g>
<defs>
<linearGradient id="paint0_linear_6_136" x1="-30.0723" y1="-27.2119" x2="643.725" y2="683.815" gradientUnits="userSpaceOnUse">
<stop offset="0.359375"/>
<stop offset="1" stop-color="#920928"/>
</linearGradient>
<linearGradient id="paint1_linear_6_136" x1="646.607" y1="-4.37073" x2="758.867" y2="114.132" gradientUnits="userSpaceOnUse">
<stop offset="0.359375"/>
<stop offset="1" stop-color="#920928"/>
</linearGradient>
<linearGradient id="paint2_linear_6_136" x1="809.511" y1="-4.37073" x2="921.772" y2="114.132" gradientUnits="userSpaceOnUse">
<stop offset="0.359375"/>
<stop offset="1" stop-color="#920928"/>
</linearGradient>
<linearGradient id="paint3_linear_6_136" x1="157.892" y1="-4.53381" x2="270.153" y2="113.969" gradientUnits="userSpaceOnUse">
<stop offset="0.359375"/>
<stop offset="1" stop-color="#920928"/>
</linearGradient>
<linearGradient id="paint4_linear_6_136" x1="483.702" y1="-4.53381" x2="595.962" y2="113.969" gradientUnits="userSpaceOnUse">
<stop offset="0.359375"/>
<stop offset="1" stop-color="#920928"/>
</linearGradient>
<linearGradient id="paint5_linear_6_136" x1="-5.01205" y1="-4.53418" x2="107.248" y2="113.968" gradientUnits="userSpaceOnUse">
<stop offset="0.359375"/>
<stop offset="1" stop-color="#920928"/>
</linearGradient>
<linearGradient id="paint6_linear_6_136" x1="320.797" y1="-4.53381" x2="433.057" y2="113.969" gradientUnits="userSpaceOnUse">
<stop offset="0.359375"/>
<stop offset="1" stop-color="#920928"/>
</linearGradient>
<linearGradient id="paint7_linear_6_136" x1="-30.0723" y1="-27.2119" x2="643.725" y2="683.815" gradientUnits="userSpaceOnUse">
<stop offset="0.359375"/>
<stop offset="1" stop-color="#920928"/>
</linearGradient>
<linearGradient id="paint8_linear_6_136" x1="1624.03" y1="-4.37073" x2="1736.29" y2="114.132" gradientUnits="userSpaceOnUse">
<stop offset="0.359375"/>
<stop offset="1" stop-color="#920928"/>
</linearGradient>
<linearGradient id="paint9_linear_6_136" x1="1786.94" y1="-4.37073" x2="1899.2" y2="114.132" gradientUnits="userSpaceOnUse">
<stop offset="0.359375"/>
<stop offset="1" stop-color="#920928"/>
</linearGradient>
<linearGradient id="paint10_linear_6_136" x1="1135.32" y1="-4.53381" x2="1247.58" y2="113.969" gradientUnits="userSpaceOnUse">
<stop offset="0.359375"/>
<stop offset="1" stop-color="#920928"/>
</linearGradient>
<linearGradient id="paint11_linear_6_136" x1="1461.13" y1="-4.53381" x2="1573.39" y2="113.969" gradientUnits="userSpaceOnUse">
<stop offset="0.359375"/>
<stop offset="1" stop-color="#920928"/>
</linearGradient>
<linearGradient id="paint12_linear_6_136" x1="972.416" y1="-4.53393" x2="1084.68" y2="113.968" gradientUnits="userSpaceOnUse">
<stop offset="0.359375"/>
<stop offset="1" stop-color="#920928"/>
</linearGradient>
<linearGradient id="paint13_linear_6_136" x1="1298.22" y1="-4.53381" x2="1410.48" y2="113.969" gradientUnits="userSpaceOnUse">
<stop offset="0.359375"/>
<stop offset="1" stop-color="#920928"/>
</linearGradient>
<clipPath id="clip0_6_136">
<rect width="1954.86" height="73" fill="white"/>
</clipPath>
<clipPath id="clip1_6_136">
<rect width="977.428" height="977.754" fill="white"/>
</clipPath>
<clipPath id="clip2_6_136">
<rect width="977.428" height="977.754" fill="white" transform="translate(977.428)"/>
</clipPath>
</defs>
</svg>
