<svg width="500" height="500" viewBox="0 0 500 500" fill="none" xmlns="http://www.w3.org/2000/svg">
<g clip-path="url(#clip0_282_187)">
<path fill-rule="evenodd" clip-rule="evenodd" d="M397.512 217.265C399.306 223.985 400.681 230.822 401.457 237.728C403.056 251.523 402.859 265.529 400.586 279.192C399.454 286.024 397.865 292.768 395.83 299.372C393.751 305.96 391.223 312.398 388.278 318.629C385.339 324.861 381.98 330.896 378.156 336.613C374.324 342.324 370.114 347.764 365.572 352.901C369.881 347.567 373.828 341.957 377.376 336.117C380.97 330.304 384.103 324.22 386.802 317.961C389.505 311.705 391.784 305.273 393.614 298.72C395.4 292.157 396.737 285.482 397.622 278.754C397.868 276.962 398.074 275.165 398.252 273.366C397.501 278.031 396.548 282.657 395.376 287.224C397.622 277.02 398.8 266.594 398.904 256.177C398.512 236.635 394.241 217.219 386.363 199.422C381.468 188.509 375.236 178.201 367.87 168.8C369.766 171.366 371.571 173.999 373.281 176.694C376.71 182.14 379.77 187.81 382.435 193.656C385.059 199.523 387.278 205.558 389.081 211.71C392.762 224.001 394.447 236.821 394.483 249.578C393.453 224.086 385.522 198.956 371.27 178.003C364.298 167.446 355.796 157.936 346.23 149.715C336.659 141.486 325.899 134.698 314.477 129.425C291.557 119.063 265.811 114.959 240.919 118.334C216.033 121.577 192.152 131.915 172.703 147.743C153.166 163.455 138.095 184.69 129.945 208.434C129.606 209.374 129.312 210.33 129.018 211.286C128.85 211.829 128.683 212.372 128.507 212.913C128.031 214.408 127.557 215.901 127.195 217.43L126.02 221.988L125.067 226.598L124.596 228.905L124.24 231.23L123.544 235.887C123.458 236.864 123.356 237.84 123.254 238.816C123.03 240.963 122.806 243.109 122.755 245.269C122.065 257.809 123.226 270.44 125.979 282.718C131.545 307.286 144.217 330.219 161.951 348.257C166.375 352.775 171.056 357.067 176.099 360.907C177.813 362.313 179.626 363.579 181.441 364.847C182.226 365.395 183.011 365.944 183.789 366.504C184.597 367.005 185.399 367.519 186.202 368.033C188.072 369.23 189.943 370.429 191.902 371.481C202.911 377.828 214.879 382.479 227.239 385.64C202.194 380.548 178.715 367.884 160.266 349.945C141.87 331.942 128.505 308.724 122.333 283.586C116.014 258.467 117.315 231.532 125.574 206.938C133.854 182.307 149.457 160.28 169.627 143.941C188.445 128.721 211.222 118.433 235.101 114.499C216.553 116.794 198.449 122.662 182.167 131.888C181.221 132.403 180.299 132.965 179.378 133.527C178.864 133.84 178.351 134.152 177.833 134.457C176.39 135.317 174.949 136.178 173.574 137.147L169.394 139.966L165.356 142.985L163.34 144.499L161.403 146.113L157.535 149.353C156.778 150.071 156.009 150.776 155.24 151.482C153.53 153.05 151.819 154.619 150.238 156.319C140.771 165.888 132.737 176.85 126.234 188.662C113.302 212.346 107.092 239.714 108.428 266.822C108.65 271.363 109.056 275.908 109.68 280.422C112.77 296.636 118.564 312.362 126.814 326.705C130.195 332.6 133.901 338.333 138.109 343.691C139.516 345.623 141.067 347.44 142.619 349.258C143.28 350.032 143.942 350.807 144.592 351.591C145.299 352.333 145.995 353.085 146.692 353.838C148.312 355.588 149.933 357.34 151.684 358.963C161.414 368.544 172.604 376.614 184.602 383.241C165.359 373.766 148.384 359.749 135.065 342.793C135.871 343.894 136.692 344.981 137.569 346.028C146.392 357.261 156.87 367.175 168.446 375.595C191.678 392.357 219.681 402.55 248.433 404.758C255.618 405.319 262.858 405.494 270.07 405.01C272.597 404.929 275.105 404.657 277.617 404.384C278.702 404.266 279.789 404.148 280.877 404.045C281.944 403.871 283.015 403.711 284.087 403.551C286.596 403.177 289.109 402.803 291.584 402.235C298.709 400.879 305.692 398.833 312.554 396.458L317.684 394.603C318.783 394.175 319.868 393.715 320.954 393.255C321.543 393.005 322.133 392.755 322.725 392.51L325.242 391.45L327.707 390.272L332.632 387.897C307.404 402.632 277.669 409.631 248.214 408.33C218.753 406.944 189.558 397.244 165.162 380.26C140.64 363.444 121.265 339.286 109.667 311.831C98.0658 284.32 94.776 253.473 99.7286 224.067C104.741 194.658 117.975 166.674 137.766 144.338C142.746 138.785 148.096 133.581 153.755 128.735C154.675 127.952 155.622 127.203 156.568 126.454C157.082 126.047 157.596 125.64 158.105 125.229L160.288 123.489L162.551 121.851L167.093 118.602L171.788 115.584C184.347 107.58 198.131 101.6 212.398 97.4908C219.547 95.4802 226.834 93.9873 234.178 92.9737C241.524 91.9684 248.937 91.4233 256.341 91.5301C271.141 91.6835 285.92 93.7599 300.06 97.9811C307.127 100.093 314.041 102.679 320.744 105.714C327.425 108.796 333.887 112.329 340.072 116.277C346.26 120.219 352.183 124.574 357.705 129.379C363.219 134.194 368.394 139.372 373.201 144.858C368.12 139.621 362.707 134.728 356.998 130.233C351.328 125.689 345.313 121.591 339.056 117.934C332.805 114.272 326.313 111.034 319.64 108.256C312.945 105.525 306.078 103.249 299.098 101.446C271.204 94.0612 241.417 94.7049 214.014 102.986C186.665 111.409 161.642 127.319 142.993 148.926C137.026 155.758 131.693 163.126 127.031 170.901C127.118 170.766 127.202 170.629 127.286 170.493C127.39 170.325 127.494 170.156 127.603 169.991C142.886 146.669 165.057 128.034 190.429 116.542C215.813 105.065 244.395 100.704 272.026 104.35C278.926 105.298 285.755 106.717 292.467 108.56C293.543 108.86 294.61 109.198 295.678 109.536C296.27 109.723 296.861 109.911 297.455 110.091L299.945 110.872L302.396 111.768L307.289 113.584L312.082 115.638C324.85 121.169 336.698 128.716 347.348 137.613C357.921 146.609 367.309 156.993 374.998 168.52C377.945 172.944 380.666 177.516 383.145 182.214C385.958 187.175 388.505 192.286 390.754 197.521C393.464 203.942 395.707 210.549 397.512 217.265ZM333.865 202.578H177.23V163.42H294.707C315.988 163.42 333.314 180.417 333.854 201.562C333.865 201.906 333.865 202.234 333.865 202.576V202.578ZM196.811 339.634V222.161H235.968V300.477C235.968 322.098 218.434 339.634 196.811 339.634ZM275.126 339.634V222.161H314.284V300.477C314.284 322.098 296.75 339.634 275.126 339.634Z" fill="url(#paint0_linear_282_187)"/>
<g style="mix-blend-mode:overlay">
<path fill-rule="evenodd" clip-rule="evenodd" d="M463.889 191.803C465.198 196.098 466.382 200.433 467.438 204.803C469.808 214.905 471.489 225.177 472.474 235.526C473.469 245.876 473.752 256.31 473.221 266.721C472.772 277.134 471.619 287.534 469.78 297.829C472.075 287.626 473.704 277.26 474.628 266.81C475.538 256.358 475.591 245.824 474.939 235.335C474.734 231.997 474.457 228.663 474.109 225.336C476.312 235.507 477.76 245.847 478.385 256.25C481.232 294.798 472.542 334.042 454.461 368.502C464.143 351.623 471.695 333.404 476.205 314.36C478.517 304.858 480.188 295.194 481.196 285.442C482.134 275.687 482.417 265.863 482.039 256.054C481.837 251.19 481.46 246.336 480.914 241.499C483.474 259.536 483.845 277.905 481.988 296.055C478.821 325.572 469.655 354.477 455.268 380.591C447.186 394.272 437.678 407.146 426.929 418.912C431.96 413.774 436.748 408.389 441.298 402.8C439.69 405.041 438.048 407.258 436.356 409.437C430.056 417.649 423.199 425.448 415.834 432.756C408.42 440.015 400.504 446.774 392.161 452.976C383.823 459.187 375.043 464.833 365.863 469.771C356.723 474.78 347.23 479.18 337.47 482.939C347.387 479.619 357.098 475.643 366.516 471.021C375.927 466.386 384.966 460.976 393.601 454.985C402.244 448.999 410.494 442.424 418.264 435.307C425.99 428.135 433.232 420.438 439.937 412.276C453.361 395.961 464.303 377.61 472.711 358.167C476.954 348.454 480.352 338.373 483.106 328.128C485.844 317.879 487.92 307.44 489.238 296.892C490.26 288.262 490.793 279.567 490.86 270.868C491.168 262.772 491.062 254.658 490.542 246.566C489.176 225.475 484.695 204.598 477.589 184.651C470.306 164.775 460.411 145.771 447.763 128.727L442.998 122.358L437.92 116.227L435.365 113.174L432.671 110.244C432.025 109.553 431.386 108.854 430.747 108.154C429.595 106.894 428.443 105.634 427.249 104.417C419.79 96.8632 411.851 89.7805 403.459 83.266C402.212 82.3084 400.955 81.3643 399.688 80.4337C396.293 77.4019 392.808 74.4689 389.234 71.6446C382.381 66.3009 375.219 61.3415 367.813 56.7788C361.047 52.3219 354.051 48.2105 346.86 44.464C343.445 42.6876 339.983 41.0032 336.479 39.4105C375.747 50.1897 412.338 71.1529 441.435 100.077C449.281 107.782 456.616 116.026 463.377 124.74C470.073 133.498 476.18 142.726 481.644 152.332C487.12 161.934 491.941 171.935 495.965 182.263C500.078 192.554 503.497 203.145 506.214 213.939C504.049 203.025 501.162 192.239 497.55 181.673C493.92 171.114 489.418 160.844 484.25 150.917C479.09 140.986 473.249 131.39 466.774 122.223C460.234 113.102 453.073 104.413 445.348 96.2333C429.889 79.873 411.951 65.8592 392.517 54.3689C382.817 48.5808 372.61 43.6476 362.138 39.3726C351.664 35.1104 340.9 31.5253 329.923 28.7287C312.121 24.3124 293.8 21.7586 275.421 21.4759C258.388 19.0144 241.062 18.4089 223.901 20.0268L215.984 20.8043L208.11 21.9728L204.175 22.5775L200.273 23.3642C199.347 23.5585 198.418 23.743 197.489 23.9276C195.815 24.2602 194.139 24.593 192.48 24.9839C182.155 27.4526 171.985 30.5754 162.066 34.3802C122.455 49.8158 87.4593 76.6518 61.9667 110.65C36.5024 144.657 20.5653 185.86 17.2811 228.264C17.2567 228.565 17.2414 228.866 17.2262 229.168C17.2139 229.412 17.2015 229.656 17.1843 229.9C17.7018 216.083 19.4143 202.315 22.3671 188.798C31.4114 146.212 53.1631 106.555 83.5257 75.1958C114.066 43.9863 153.405 21.2327 196.115 10.6013C206.769 7.88039 217.621 5.87538 228.576 4.60499C239.536 3.41295 250.593 2.96887 261.64 3.26946C272.69 3.55867 283.742 4.61454 294.661 6.52087C305.595 8.3331 316.425 10.8937 327.066 14.1591C316.608 10.3592 305.887 7.24268 294.977 4.85913C284.065 2.49628 272.948 1.0278 261.78 0.307455C250.612 -0.422212 239.378 -0.395668 228.183 0.396017C216.993 1.26604 205.852 2.89157 194.854 5.26322C172.852 10.0142 151.573 18.101 131.679 28.7742C121.704 34.0735 112.198 40.2502 103.117 46.9937C94.0464 53.7461 85.4048 61.097 77.3268 69.0392C61.2792 85.0166 47.2511 103.14 36.3474 123.07L32.2907 130.555L28.6083 138.235L26.7881 142.088L25.1486 146.017C24.7706 146.942 24.3826 147.864 23.9944 148.785C23.2801 150.482 22.5652 152.179 21.9116 153.901C17.9092 164.537 14.5842 175.426 12.0091 186.507C1.97371 230.907 4.85476 278.037 19.7701 321.028C34.2516 362.504 59.9974 400.125 93.9267 428.093C107.698 442.81 123.267 455.806 140.169 466.655C178.086 490.838 222.703 504.27 267.267 504.047L258.949 503.428L254.795 503.104L250.661 502.585C249.692 502.457 248.723 502.337 247.754 502.218C245.969 501.998 244.184 501.778 242.406 501.505L234.215 500.042C223.339 497.946 212.555 495.324 202.109 491.681C198.405 490.543 194.801 489.122 191.201 487.702C189.663 487.096 188.127 486.49 186.583 485.906C185.068 485.212 183.543 484.539 182.019 483.867C178.494 482.312 174.971 480.759 171.573 478.938C161.675 474.078 152.245 468.325 143.182 462.103C139.046 459.272 135.002 456.311 131.055 453.228C159.127 468.664 190.208 478.559 222.027 481.698C267.117 486.467 313.267 477.973 353.663 458.172C393.988 438.261 428.587 407.052 451.477 368.815L446.639 375.61L444.21 378.996L441.624 382.263C441.013 383.025 440.409 383.793 439.805 384.56C438.693 385.973 437.58 387.385 436.426 388.765L430.932 395.014C423.506 403.232 415.677 411.099 407.151 418.148C404.259 420.727 401.177 423.074 398.098 425.418C396.783 426.42 395.469 427.42 394.17 428.438C392.791 429.375 391.427 430.331 390.062 431.287C386.906 433.497 383.753 435.706 380.435 437.67C371.152 443.619 361.346 448.706 351.33 453.237C311.279 471.418 266.359 478.377 222.988 473.049C201.327 470.303 180.036 464.754 159.987 456.224C158.046 455.47 156.148 454.621 154.263 453.741C184.526 466.615 217.517 472.872 250.201 471.393C229.295 471.355 208.408 468.793 188.36 463.138C184.827 462.256 181.373 461.107 177.92 459.958C176.436 459.464 174.953 458.97 173.463 458.498C172.017 457.928 170.564 457.379 169.111 456.83C165.701 455.541 162.293 454.253 158.991 452.705C149.429 448.636 140.261 443.697 131.411 438.303C109.841 425.197 90.5389 408.436 74.492 389.036C73.0494 387.1 71.6395 385.139 70.2612 383.156C66.4258 376.471 62.9187 369.603 59.763 362.577C50.8932 342.625 44.613 321.539 41.5254 299.97C41.1655 297.92 40.9094 295.856 40.6854 293.787C45.3467 326.343 57.0805 357.806 75.2741 384.998C64.4787 367.095 55.8517 347.901 50.3066 327.822C49.231 324.343 48.4253 320.793 47.6198 317.245C47.2737 315.72 46.9276 314.195 46.5602 312.676C46.2987 311.144 46.0158 309.616 45.7331 308.089C45.0695 304.504 44.4064 300.922 44.0203 297.295C43.3733 292.773 42.9096 288.229 42.5957 283.675C50.1803 320.943 67.8669 356.162 93.7287 383.965C98.223 388.853 102.949 393.518 107.882 397.948C114.568 406.095 121.881 413.711 129.766 420.686C123.788 414.843 118.116 408.692 112.82 402.245C136.213 421.977 163.836 436.593 193.203 444.777C231.047 455.195 271.735 454.864 308.952 443.262C290.109 448.121 270.695 450.701 251.315 450.31C247.924 450.343 244.541 450.117 241.162 449.891C239.712 449.794 238.262 449.697 236.812 449.621C235.362 449.444 233.909 449.288 232.456 449.132C229.099 448.772 225.745 448.412 222.422 447.792C212.859 446.366 203.447 444.07 194.214 441.284C157.254 430.209 123.461 408.871 97.9635 380.125C96.8068 378.815 95.6656 377.491 94.5404 376.154C94.321 375.781 94.103 375.407 93.8862 375.032C92.1011 372.148 90.5426 369.137 88.9857 366.13C88.3175 364.839 87.6496 363.548 86.9641 362.269C86.3641 360.936 85.7451 359.613 85.1263 358.29C83.6958 355.231 82.2664 352.175 81.0751 349.012C77.3424 340.093 74.4321 330.852 72.0332 321.511C62.364 284.158 63.1151 244.2 74.4998 207.5C80.2268 189.182 88.3256 171.612 98.8016 155.573C100.516 152.759 102.449 150.094 104.382 147.43C105.262 146.218 106.141 145.006 106.999 143.781L111.47 138.16L113.714 135.36L116.095 132.672L120.871 127.309L125.899 122.184C127.543 120.441 129.307 118.83 131.077 117.218C131.722 116.638 132.357 116.048 132.992 115.458C134.11 114.42 135.228 113.382 136.393 112.399C165.267 87.2485 201.371 70.6924 239.161 64.8364C276.924 58.7616 316.355 63.3185 351.702 78.0141C383.051 90.8578 410.824 111.934 432.301 138.189C432.361 138.287 432.42 138.384 432.479 138.482C432.435 138.403 432.391 138.324 432.348 138.245C435.144 141.666 437.834 145.175 440.411 148.765C447.456 158.744 453.678 169.329 458.912 180.392C459.768 182.96 460.578 185.544 461.342 188.142C460.818 186.101 460.264 184.067 459.683 182.04C461.17 185.256 462.573 188.511 463.889 191.803ZM85.895 365.189C78.5702 351.658 72.7217 337.299 68.5209 322.456C57.9488 284.644 58.0017 243.781 69.0214 205.867C79.8309 167.865 102.092 133.277 131.758 107.089C161.483 80.8664 198.893 63.6698 237.998 57.4678C274.464 51.7158 312.399 55.4959 346.941 68.5108C320.69 57.3975 292.3 51.3412 263.755 51.1104C262.112 51.0695 260.466 51.1087 258.821 51.1479C257.904 51.1698 256.987 51.1916 256.071 51.1996C253.508 51.2348 250.949 51.2721 248.393 51.5043L240.721 52.0397L233.085 52.9479L229.267 53.4113L225.478 54.0656L217.897 55.3965C216.35 55.7664 214.796 56.1117 213.242 56.457C209.787 57.2247 206.331 57.9926 202.945 59.0328C183.142 64.4522 164.168 72.806 146.569 83.4494C111.424 104.872 82.3478 136.289 63.4394 173.117C60.2687 179.286 57.3383 185.598 54.7204 192.037C51.7341 200.608 49.2602 209.363 47.3156 218.238C44.8418 238.052 45.2415 258.225 48.6668 277.924C48.9047 279.43 49.2136 280.924 49.5228 282.418C49.6983 283.267 49.8738 284.116 50.0365 284.967C50.4988 287.317 50.9626 289.66 51.6028 291.969L53.3824 298.925L55.4967 305.788L56.5623 309.217L57.7956 312.587L60.2884 319.322C60.8921 320.691 61.4732 322.071 62.0544 323.45C63.3322 326.484 64.6103 329.518 66.1297 332.442C71.6563 343.948 78.3112 354.903 85.895 365.189ZM205.107 41.7177C203.066 42.3621 201.035 43.0364 199.013 43.7407C185.921 48.2151 173.256 53.8813 161.168 60.5949C161.386 60.4833 161.601 60.3674 161.816 60.2515C162.082 60.1083 162.348 59.9651 162.618 59.8302C191.483 45.2721 223.541 37.3268 255.827 36.1839C249.623 36.0855 243.417 36.2588 237.234 36.6941C226.415 37.5413 215.663 39.224 205.107 41.7177ZM118.937 75.984C96.3603 92.5419 76.917 113.368 62.2032 137.233C61.3171 138.617 60.4982 140.045 59.6795 141.473C59.2234 142.269 58.7673 143.064 58.2997 143.852C57.0024 146.063 55.7088 148.271 54.5836 150.578L51.0683 157.418L47.8904 164.42L46.3091 167.927L44.9065 171.507L42.1187 178.681C41.6338 180.196 41.1243 181.704 40.6147 183.212C39.482 186.566 38.349 189.92 37.4851 193.355C32.1187 212.209 29.4321 231.801 29.1913 251.436C29.4883 245.447 30.0069 239.468 30.7482 233.517C36.4051 188.329 55.5851 145.072 84.5544 110.004C94.8651 97.573 106.407 86.1688 118.937 75.984Z" fill="url(#paint1_linear_282_187)"/>
</g>
<g filter="url(#filter0_i_282_187)">
<g clip-path="url(#clip1_282_187)">
<rect width="295.83" height="295.929" transform="translate(129.203 637.367) rotate(-45)" fill="url(#paint2_linear_282_187)"/>
<path d="M303.558 463.082L268.694 497.946L303.558 532.81L338.422 497.946L303.558 463.082Z" fill="#181B24"/>
<path d="M321.046 480.57L338.422 497.946L303.558 532.81L289.961 519.213C288.922 515.685 289.787 511.717 292.569 508.935L299.894 516.26C295.85 512.216 295.853 505.651 299.894 501.61L307.219 508.935C303.174 504.891 303.178 498.326 307.222 494.282L314.547 501.607C310.503 497.563 310.503 491.001 314.547 486.957L321.872 494.282C318.128 490.538 317.849 484.632 321.046 480.57Z" fill="#920928"/>
<path d="M303.558 463.082L317.155 476.679C318.194 480.207 317.329 484.175 314.547 486.957L307.222 479.632C311.263 483.673 311.263 490.241 307.222 494.282L299.897 486.957C303.938 490.998 303.938 497.566 299.894 501.61L292.569 494.285C296.609 498.326 296.613 504.891 292.569 508.935L285.244 501.61C288.985 505.351 289.267 511.261 286.07 515.322L268.694 497.946L303.558 463.082Z" fill="#F4F4F4"/>
<path d="M408.152 497.949L373.289 532.813L408.152 567.677L443.016 532.813L408.152 497.949Z" fill="#181B24"/>
<path d="M338.425 497.95L303.561 532.813L338.425 567.677L373.289 532.813L338.425 497.95Z" fill="#181B24"/>
<path d="M338.422 428.218L303.558 463.082L338.422 497.946L373.285 463.082L338.422 428.218Z" fill="#181B24"/>
<path d="M314.453 460.903L316.632 458.724L317.434 461.702L318.229 464.679L315.255 463.881L312.274 463.082L314.453 460.903Z" fill="#920928"/>
<path d="M318.811 456.545L320.99 454.366L321.792 457.344L322.587 460.321L319.613 459.523L316.632 458.724L318.811 456.545Z" fill="#F4F4F4"/>
<path d="M323.169 452.187L325.348 450.008L326.15 452.986L326.944 455.963L323.971 455.165L320.99 454.366L323.169 452.187Z" fill="#920928"/>
<path d="M327.527 447.829L329.706 445.65L330.508 448.628L331.302 451.605L328.329 450.807L325.348 450.008L327.527 447.829Z" fill="#F4F4F4"/>
<path d="M331.885 443.471L334.064 441.292L334.865 444.27L335.66 447.247L332.686 446.449L329.706 445.65L331.885 443.471Z" fill="#920928"/>
<path d="M336.242 439.113L338.421 436.934L339.223 439.912L340.018 442.889L337.044 442.091L334.063 441.292L336.242 439.113Z" fill="#F4F4F4"/>
<path d="M318.228 464.679L320.407 462.5L321.206 465.474L322.001 468.451L319.027 467.653L316.049 466.858L318.228 464.679Z" fill="#920928"/>
<path d="M322.587 460.321L324.766 458.142L325.564 461.116L326.359 464.093L323.385 463.295L320.408 462.5L322.587 460.321Z" fill="#F4F4F4"/>
<path d="M326.945 455.963L329.124 453.784L329.922 456.758L330.717 459.735L327.743 458.937L324.766 458.142L326.945 455.963Z" fill="#920928"/>
<path d="M331.303 451.605L333.482 449.426L334.28 452.4L335.075 455.377L332.101 454.579L329.124 453.784L331.303 451.605Z" fill="#F4F4F4"/>
<path d="M335.66 447.247L337.839 445.068L338.638 448.042L339.433 451.019L336.459 450.221L333.481 449.426L335.66 447.247Z" fill="#920928"/>
<path d="M340.018 442.889L342.197 440.71L342.996 443.684L343.791 446.661L340.817 445.863L337.839 445.068L340.018 442.889Z" fill="#F4F4F4"/>
<path d="M322.001 468.451L324.18 466.272L324.982 469.25L325.777 472.227L322.803 471.429L319.822 470.63L322.001 468.451Z" fill="#920928"/>
<path d="M326.359 464.093L328.538 461.914L329.34 464.892L330.134 467.869L327.161 467.071L324.18 466.272L326.359 464.093Z" fill="#F4F4F4"/>
<path d="M330.717 459.735L332.896 457.556L333.697 460.534L334.492 463.511L331.518 462.713L328.538 461.914L330.717 459.735Z" fill="#920928"/>
<path d="M335.075 455.377L337.253 453.198L338.055 456.176L338.85 459.153L335.876 458.355L332.896 457.556L335.075 455.377Z" fill="#F4F4F4"/>
<path d="M339.432 451.019L341.611 448.84L342.413 451.818L343.208 454.795L340.234 453.997L337.253 453.198L339.432 451.019Z" fill="#920928"/>
<path d="M343.79 446.661L345.969 444.482L346.771 447.46L347.566 450.437L344.592 449.639L341.611 448.84L343.79 446.661Z" fill="#F4F4F4"/>
<path d="M325.777 472.227L327.956 470.048L328.754 473.022L329.549 475.999L326.575 475.201L323.598 474.406L325.777 472.227Z" fill="#920928"/>
<path d="M330.135 467.869L332.314 465.69L333.112 468.664L333.907 471.641L330.933 470.843L327.956 470.048L330.135 467.869Z" fill="#F4F4F4"/>
<path d="M334.492 463.511L336.671 461.332L337.47 464.306L338.265 467.283L335.291 466.485L332.313 465.69L334.492 463.511Z" fill="#920928"/>
<path d="M338.85 459.153L341.029 456.974L341.828 459.948L342.623 462.925L339.649 462.127L336.671 461.332L338.85 459.153Z" fill="#F4F4F4"/>
<path d="M343.208 454.795L345.387 452.616L346.186 455.59L346.981 458.567L344.007 457.769L341.029 456.974L343.208 454.795Z" fill="#920928"/>
<path d="M347.566 450.437L349.745 448.258L350.544 451.232L351.338 454.209L348.365 453.411L345.387 452.616L347.566 450.437Z" fill="#F4F4F4"/>
<path d="M329.549 475.999L331.728 473.82L332.529 476.798L333.324 479.775L330.35 478.977L327.37 478.178L329.549 475.999Z" fill="#920928"/>
<path d="M333.907 471.641L336.086 469.462L336.888 472.44L337.683 475.417L334.709 474.619L331.728 473.82L333.907 471.641Z" fill="#F4F4F4"/>
<path d="M338.265 467.283L340.444 465.104L341.246 468.082L342.041 471.059L339.067 470.261L336.086 469.462L338.265 467.283Z" fill="#920928"/>
<path d="M342.623 462.925L344.802 460.746L345.604 463.724L346.399 466.701L343.425 465.903L340.444 465.104L342.623 462.925Z" fill="#F4F4F4"/>
<path d="M346.981 458.567L349.16 456.388L349.962 459.366L350.757 462.343L347.783 461.545L344.802 460.746L346.981 458.567Z" fill="#920928"/>
<path d="M351.339 454.209L353.518 452.03L354.32 455.008L355.114 457.985L352.141 457.187L349.16 456.388L351.339 454.209Z" fill="#F4F4F4"/>
<path d="M333.325 479.775L335.503 477.596L336.302 480.57L337.1 483.551L334.123 482.749L331.146 481.954L333.325 479.775Z" fill="#920928"/>
<path d="M337.682 475.417L339.861 473.238L340.66 476.212L341.458 479.193L338.481 478.391L335.503 477.596L337.682 475.417Z" fill="#F4F4F4"/>
<path d="M342.04 471.059L344.219 468.88L345.018 471.854L345.816 474.835L342.839 474.033L339.861 473.238L342.04 471.059Z" fill="#920928"/>
<path d="M346.398 466.701L348.577 464.522L349.376 467.496L350.174 470.477L347.197 469.675L344.219 468.88L346.398 466.701Z" fill="#F4F4F4"/>
<path d="M350.757 462.343L352.936 460.164L353.734 463.138L354.532 466.119L351.555 465.317L348.578 464.522L350.757 462.343Z" fill="#920928"/>
<path d="M355.115 457.985L357.294 455.806L358.092 458.78L358.89 461.761L355.913 460.959L352.936 460.164L355.115 457.985Z" fill="#F4F4F4"/>
<path d="M337.1 483.551L339.279 481.372L340.077 484.346L340.872 487.323L337.898 486.525L334.921 485.73L337.1 483.551Z" fill="#920928"/>
<path d="M341.458 479.193L343.637 477.014L344.436 479.987L345.231 482.965L342.257 482.166L339.279 481.372L341.458 479.193Z" fill="#F4F4F4"/>
<path d="M345.816 474.835L347.995 472.656L348.794 475.63L349.588 478.607L346.615 477.809L343.637 477.014L345.816 474.835Z" fill="#920928"/>
<path d="M350.174 470.477L352.353 468.298L353.151 471.272L353.946 474.249L350.972 473.451L347.995 472.656L350.174 470.477Z" fill="#F4F4F4"/>
<path d="M354.532 466.119L356.711 463.94L357.509 466.914L358.304 469.891L355.33 469.093L352.353 468.298L354.532 466.119Z" fill="#920928"/>
<path d="M358.89 461.761L361.069 459.582L361.867 462.556L362.662 465.533L359.688 464.735L356.711 463.94L358.89 461.761Z" fill="#F4F4F4"/>
<path d="M268.659 497.911L233.795 532.775L268.659 567.639L303.523 532.775L268.659 497.911Z" fill="#181B24"/>
<path d="M373.289 463.086L338.425 497.95L373.289 532.813L408.153 497.95L373.289 463.086Z" fill="#181B24"/>
<path d="M373.285 471.798L399.433 497.946L390.717 506.662L368.927 484.872C364.116 489.683 364.116 497.493 368.927 502.304L382.001 515.378L373.285 524.094L347.137 497.946L373.285 471.798Z" fill="#920928"/>
</g>
<g clip-path="url(#clip2_282_187)">
<rect width="295.83" height="295.929" transform="translate(338.386 428.183) rotate(-45)" fill="url(#paint3_linear_282_187)"/>
<path d="M408.152 428.222L373.289 463.086L408.152 497.95L443.016 463.086L408.152 428.222Z" fill="#181B24"/>
<path d="M405.537 476.16L400.308 470.93C397.421 473.817 397.421 478.502 400.308 481.389L408.152 489.234L413.382 484.004L418.611 478.774L423.841 473.545L429.07 468.315L434.3 463.086L421.226 450.012C418.339 452.898 418.339 457.584 421.226 460.471L415.996 455.241C413.11 458.128 413.11 462.814 415.996 465.7L410.767 460.471C407.88 463.358 407.88 468.043 410.767 470.93L405.537 465.7C402.651 468.587 402.651 473.273 405.537 476.16Z" fill="#920928"/>
<path d="M410.767 450.012L415.997 455.241C418.883 452.355 418.883 447.669 415.997 444.782L408.152 436.938L402.923 442.167L397.693 447.397L392.464 452.627L387.234 457.856L382.004 463.086L395.078 476.16C397.965 473.273 397.965 468.587 395.078 465.7L400.308 470.93C403.195 468.043 403.195 463.358 400.308 460.471L405.538 465.7C408.424 462.814 408.424 458.128 405.538 455.241L410.767 460.471C413.654 457.584 413.654 452.898 410.767 450.012Z" fill="#F4F4F4"/>
<path d="M512.744 463.086L477.88 497.95L512.744 532.813L547.608 497.95L512.744 463.086Z" fill="#181B24"/>
<path d="M530.231 480.573L547.607 497.949L512.743 532.813L499.147 519.216C498.108 515.688 498.972 511.721 501.754 508.938L509.079 516.263C505.035 512.219 505.039 505.654 509.079 501.614L516.404 508.939C512.36 504.894 512.363 498.329 516.408 494.285L523.733 501.61C519.688 497.566 519.688 491.005 523.733 486.96L531.057 494.285C527.313 490.541 527.034 484.635 530.231 480.573Z" fill="#920928"/>
<path d="M512.744 463.086L526.341 476.683C527.38 480.211 526.515 484.178 523.733 486.96L516.408 479.636C520.449 483.676 520.449 490.245 516.408 494.285L509.083 486.96C513.124 491.001 513.124 497.57 509.08 501.614L501.755 494.289C505.795 498.33 505.799 504.894 501.755 508.939L494.43 501.614C498.171 505.355 498.453 511.264 495.256 515.326L477.88 497.95L512.744 463.086Z" fill="#F4F4F4"/>
<path d="M512.74 253.899L477.876 288.763L512.74 323.627L547.604 288.763L512.74 253.899Z" fill="#181B24"/>
<path d="M530.228 271.387L547.604 288.763L512.741 323.627L499.144 310.03C498.105 306.502 498.969 302.534 501.751 299.752L509.076 307.077C505.032 303.033 505.036 296.468 509.076 292.427L516.401 299.752C512.357 295.708 512.361 289.143 516.405 285.099L523.73 292.424C519.685 288.379 519.685 281.818 523.73 277.774L531.055 285.099C527.31 281.354 527.031 275.448 530.228 271.387Z" fill="#920928"/>
<path d="M512.74 253.899L526.337 267.496C527.376 271.024 526.512 274.992 523.729 277.774L516.405 270.449C520.445 274.49 520.445 281.058 516.405 285.099L509.08 277.774C513.12 281.814 513.12 288.383 509.076 292.427L501.751 285.102C505.792 289.143 505.795 295.708 501.751 299.752L494.426 292.427C498.167 296.168 498.45 302.077 495.253 306.139L477.876 288.763L512.74 253.899Z" fill="#F4F4F4"/>
<path d="M477.88 428.222L443.016 463.086L477.88 497.949L512.744 463.086L477.88 428.222Z" fill="#181B24"/>
<path d="M477.88 436.938L485.26 444.318L485.26 452.121C485.257 454.481 484.312 456.625 482.775 458.191C482.768 458.198 482.761 458.198 482.757 458.208L482.687 458.278C482.681 458.278 482.677 458.288 482.674 458.292C481.108 459.829 478.968 460.778 476.604 460.778V438.214L477.88 436.938Z" fill="#F4F4F4"/>
<path d="M496.644 455.701L504.025 463.082L502.752 464.355L480.188 464.355C480.188 461.991 481.133 459.847 482.674 458.285C482.705 458.246 482.737 458.215 482.772 458.187C484.333 456.646 486.478 455.701 488.841 455.701L496.644 455.701Z" fill="#920928"/>
<path d="M476.607 460.774C476.604 463.134 475.659 465.279 474.121 466.844C474.083 466.875 474.052 466.907 474.024 466.942C472.458 468.479 470.318 469.427 467.954 469.427L458.081 469.427L451.735 463.082L454.043 460.774L476.607 460.774Z" fill="#920928"/>
<path d="M480.188 464.355L480.188 486.919L477.88 489.227L471.535 482.881L471.535 473.008C471.535 470.651 472.472 468.521 473.999 466.959C474.045 466.907 474.09 466.861 474.142 466.816C475.697 465.296 477.834 464.358 480.188 464.355Z" fill="#F4F4F4"/>
<path d="M477.88 358.494L443.016 393.358L477.88 428.222L512.744 393.358L477.88 358.494Z" fill="#181B24"/>
<path d="M464.806 390.743L470.036 385.513C467.149 382.627 462.464 382.627 459.577 385.513L451.732 393.358L456.962 398.587L462.192 403.817L467.421 409.046L472.651 414.276L477.88 419.506L490.954 406.432C488.068 403.545 483.382 403.545 480.495 406.432L485.725 401.202C482.838 398.315 478.152 398.315 475.266 401.202L480.495 395.973C477.608 393.086 472.923 393.086 470.036 395.973L475.266 390.743C472.379 387.856 467.693 387.856 464.806 390.743Z" fill="#920928"/>
<path d="M408.114 358.456L373.25 393.32L408.114 428.183L442.978 393.32L408.114 358.456Z" fill="#181B24"/>
<path d="M390.713 402.011L399.426 393.299C397.822 391.695 395.221 391.695 393.617 393.299L387.809 399.107L390.713 402.011Z" fill="#920928"/>
<path d="M384.922 396.22L393.635 387.508C392.031 385.904 389.43 385.904 387.826 387.508L382.018 393.316L384.922 396.22Z" fill="#920928"/>
<path d="M402.309 413.607L411.021 404.894C409.418 403.291 406.817 403.291 405.213 404.894L399.405 410.703L402.309 413.607Z" fill="#920928"/>
<path d="M396.521 407.82L405.234 399.107C403.63 397.503 401.029 397.503 399.426 399.107L393.617 404.915L396.521 407.82Z" fill="#920928"/>
<path d="M408.118 419.415L416.83 410.703C415.226 409.099 412.625 409.099 411.022 410.703L405.213 416.511L408.118 419.415Z" fill="#920928"/>
<path d="M416.833 375.891L408.12 384.604C406.517 383 406.517 380.399 408.12 378.795L413.929 372.987L416.833 375.891Z" fill="#F4F4F4"/>
<path d="M411.042 370.1L402.33 378.813C400.726 377.209 400.726 374.608 402.33 373.005L408.138 367.196L411.042 370.1Z" fill="#F4F4F4"/>
<path d="M428.429 387.487L419.716 396.199C418.112 394.596 418.112 391.995 419.716 390.391L425.524 384.583L428.429 387.487Z" fill="#F4F4F4"/>
<path d="M422.642 381.7L413.929 390.412C412.325 388.808 412.325 386.207 413.929 384.604L419.737 378.795L422.642 381.7Z" fill="#F4F4F4"/>
<path d="M434.237 393.295L425.525 402.008C423.921 400.404 423.921 397.803 425.525 396.199L431.333 390.391L434.237 393.295Z" fill="#F4F4F4"/>
<path d="M477.88 497.949L443.016 532.813L477.88 567.677L512.744 532.813L477.88 497.949Z" fill="#181B24"/>
<path d="M477.842 288.728L442.978 323.592L477.842 358.456L512.706 323.592L477.842 288.728Z" fill="#181B24"/>
<path d="M493.611 333.246C493.848 332.855 494.071 332.458 494.28 332.053C493.544 332.545 492.662 332.834 491.707 332.834C492.244 332.834 492.767 332.925 493.248 333.099C493.374 333.141 493.492 333.19 493.611 333.246Z" fill="#920928"/>
<path d="M494.284 315.134C494.071 314.726 493.848 314.322 493.608 313.935C493.025 314.196 492.384 314.349 491.704 314.346C492.241 314.346 492.764 314.437 493.245 314.611C493.618 314.74 493.963 314.918 494.284 315.134Z" fill="#920928"/>
<path d="M482.461 332.834C482.998 332.834 483.521 332.925 484.002 333.099C485.798 333.73 487.084 335.442 487.084 337.457C487.084 335.442 488.371 333.73 490.166 333.099C490.651 332.928 491.167 332.838 491.707 332.834C489.155 332.834 487.084 330.763 487.084 328.211C487.084 330.763 485.013 332.834 482.461 332.834Z" fill="#920928"/>
<path d="M482.461 323.588C481.924 323.588 481.401 323.679 480.924 323.85C479.125 324.484 477.842 326.2 477.842 328.208L477.842 318.962C477.842 321.521 479.909 323.588 482.461 323.588Z" fill="#920928"/>
<path d="M487.499 339.357C487.238 338.775 487.084 338.134 487.088 337.454C487.088 338.409 486.798 339.291 486.307 340.027C486.708 339.821 487.112 339.598 487.499 339.357Z" fill="#920928"/>
<path d="M486.304 307.154C486.795 307.889 487.085 308.771 487.088 309.723C487.088 309.047 487.235 308.405 487.499 307.826C487.106 307.586 486.708 307.363 486.304 307.154Z" fill="#920928"/>
<path d="M496.069 326.681C496.236 325.677 496.33 324.641 496.33 323.588C496.33 322.529 496.236 321.493 496.069 320.482C495.441 322.288 493.726 323.585 491.707 323.581C492.244 323.581 492.767 323.672 493.248 323.846C494.566 324.321 495.605 325.366 496.069 326.681Z" fill="#920928"/>
<path d="M480.924 305.365C479.125 305.999 477.842 307.715 477.842 309.723L477.842 305.1C478.895 305.1 479.923 305.187 480.924 305.365Z" fill="#920928"/>
<path d="M482.462 332.834C481.925 332.834 481.402 332.925 480.924 333.096C479.125 333.73 477.842 335.445 477.842 337.454L477.842 328.208C477.842 330.767 479.91 332.834 482.462 332.834Z" fill="#920928"/>
<path d="M480.945 341.818C479.934 341.986 478.899 342.08 477.846 342.08L477.846 337.457C477.842 339.476 479.139 341.184 480.945 341.818Z" fill="#920928"/>
<path d="M487.084 318.965C487.084 316.95 488.371 315.238 490.166 314.607C490.651 314.437 491.167 314.346 491.707 314.342C489.155 314.342 487.084 312.271 487.084 309.719C487.084 312.271 485.013 314.342 482.461 314.342C482.998 314.342 483.521 314.433 484.002 314.607C485.801 315.242 487.088 316.954 487.084 318.965Z" fill="#920928"/>
<path d="M482.461 323.588C482.998 323.588 483.521 323.679 484.002 323.853C485.798 324.484 487.084 326.196 487.084 328.211C487.084 326.196 488.371 324.484 490.166 323.853C490.651 323.683 491.167 323.592 491.707 323.588C489.155 323.588 487.084 321.518 487.084 318.965C487.084 321.518 485.013 323.588 482.461 323.588Z" fill="#920928"/>
<path d="M482.465 314.346C481.928 314.346 481.405 314.436 480.928 314.607C479.129 315.242 477.846 316.957 477.846 318.965L477.846 309.719C477.842 312.275 479.906 314.346 482.465 314.346Z" fill="#920928"/>
<path d="M477.845 318.965L477.845 328.211C477.845 326.196 476.559 324.491 474.763 323.853C474.282 323.686 473.763 323.592 473.219 323.592C475.771 323.592 477.842 321.521 477.845 318.965Z" fill="#F4F4F4"/>
<path d="M463.973 332.838C463.436 332.838 462.913 332.928 462.436 333.099C462.314 333.145 462.188 333.193 462.07 333.249C461.832 332.866 461.613 332.465 461.404 332.053C462.139 332.545 463.021 332.834 463.973 332.838Z" fill="#F4F4F4"/>
<path d="M469.377 340.027C468.972 339.817 468.572 339.598 468.185 339.357C468.446 338.775 468.599 338.134 468.596 337.454C468.599 338.412 468.882 339.294 469.377 340.027Z" fill="#F4F4F4"/>
<path d="M477.842 305.1L477.842 309.723C477.842 307.708 476.556 306.003 474.76 305.365C475.764 305.19 476.793 305.103 477.842 305.1Z" fill="#F4F4F4"/>
<path d="M463.973 314.346C463.436 314.346 462.913 314.437 462.436 314.607C462.066 314.74 461.714 314.918 461.393 315.134C461.606 314.726 461.833 314.318 462.073 313.931C462.652 314.196 463.297 314.346 463.973 314.346Z" fill="#F4F4F4"/>
<path d="M469.377 307.15C468.886 307.886 468.596 308.768 468.6 309.719C468.6 309.043 468.453 308.402 468.192 307.826C468.572 307.586 468.973 307.366 469.377 307.15Z" fill="#F4F4F4"/>
<path d="M463.973 323.592C463.436 323.592 462.913 323.682 462.435 323.853C461.118 324.32 460.079 325.366 459.615 326.681C459.448 325.676 459.357 324.644 459.353 323.588C459.353 322.535 459.444 321.496 459.615 320.489C460.243 322.295 461.958 323.592 463.973 323.592Z" fill="#F4F4F4"/>
<path d="M477.842 328.208L477.842 337.454C477.842 335.439 476.555 333.734 474.76 333.096C474.279 332.928 473.759 332.834 473.215 332.834C475.771 332.838 477.842 330.767 477.842 328.208Z" fill="#F4F4F4"/>
<path d="M473.219 323.592C472.682 323.592 472.159 323.682 471.682 323.853C469.883 324.488 468.6 326.203 468.6 328.211C468.6 326.196 467.313 324.491 465.518 323.853C465.037 323.686 464.517 323.592 463.973 323.592C466.525 323.592 468.596 321.521 468.6 318.965C468.596 321.521 470.664 323.588 473.219 323.592Z" fill="#F4F4F4"/>
<path d="M473.216 332.834C472.679 332.834 472.156 332.925 471.678 333.096C469.879 333.73 468.596 335.446 468.596 337.454C468.596 335.439 467.31 333.734 465.514 333.096C465.033 332.928 464.514 332.834 463.97 332.834C466.522 332.834 468.593 330.763 468.596 328.208C468.6 330.763 470.664 332.834 473.216 332.834Z" fill="#F4F4F4"/>
<path d="M477.842 337.454V342.076C476.782 342.076 475.746 341.982 474.742 341.815C476.548 341.187 477.842 339.476 477.842 337.454Z" fill="#F4F4F4"/>
<path d="M473.219 314.346C472.682 314.346 472.159 314.437 471.682 314.607C469.883 315.242 468.6 316.957 468.6 318.965C468.6 316.95 467.313 315.245 465.518 314.607C465.036 314.44 464.517 314.346 463.973 314.346C466.525 314.346 468.596 312.275 468.6 309.719C468.596 312.275 470.664 314.342 473.219 314.346Z" fill="#F4F4F4"/>
<path d="M477.842 309.723L477.842 318.969C477.842 316.954 476.556 315.249 474.76 314.611C474.279 314.443 473.76 314.349 473.216 314.349C475.771 314.346 477.842 312.275 477.842 309.723Z" fill="#F4F4F4"/>
<path d="M373.25 393.319L338.386 428.183L373.25 463.047L408.114 428.183L373.25 393.319Z" fill="#181B24"/>
<path d="M387.335 436.746L381.816 442.265L387.924 448.373L393.443 442.854L387.335 436.746Z" fill="#F4F4F4"/>
<path d="M387.335 436.746L376.886 426.297C373.836 429.348 373.839 434.288 376.886 437.335L381.816 442.265L371.5 452.581L366.713 434.72L361.926 416.86L379.787 421.646L397.648 426.433L387.335 436.746Z" fill="#920928"/>
<path d="M442.978 323.592L408.114 358.456L442.978 393.32L477.842 358.456L442.978 323.592Z" fill="#181B24"/>
<path d="M460.41 375.888L442.978 393.32L442.967 375.877L442.96 358.438L460.399 358.445L477.842 358.456L460.41 375.888Z" fill="#F4F4F4"/>
<path d="M425.546 341.024L442.978 323.592L442.974 341.02L442.974 358.452L425.542 358.452L408.114 358.456L425.546 341.024Z" fill="#920928"/>
<path d="M443.016 393.358L408.152 428.222L443.016 463.086L477.88 428.222L443.016 393.358Z" fill="#181B24"/>
<path d="M454.591 404.933L477.88 428.222L454.591 451.511V404.933Z" fill="#920928"/>
<path d="M443.016 393.358L454.682 405.023L454.685 451.417L443.016 463.086L431.396 451.466L431.393 404.982L443.016 393.358Z" fill="#F4F4F4"/>
<path d="M431.393 404.982L431.396 451.466L408.152 428.222L431.393 404.982Z" fill="#181B24"/>
<path d="M443.016 463.086L408.152 497.95L443.016 532.813L477.88 497.95L443.016 463.086Z" fill="#181B24"/>
<path d="M443.016 463.086L425.584 480.518L460.448 515.382L477.88 497.95L443.016 463.086Z" fill="#920928"/>
<path d="M512.744 323.63L477.88 358.494L512.744 393.358L547.608 358.494L512.744 323.63Z" fill="#181B24"/>
<path d="M512.744 323.63L547.608 358.494C546.663 359.439 545.663 360.286 544.61 361.039C536.04 367.224 524.382 367.224 515.812 361.039C515.662 360.931 515.512 360.823 515.366 360.711C514.463 360.031 513.598 359.278 512.779 358.459C511.956 357.636 511.2 356.768 510.52 355.858C510.405 355.715 510.293 355.562 510.189 355.408C504.014 346.842 504.018 335.201 510.189 326.639C510.949 325.586 511.796 324.578 512.744 323.63Z" fill="#920928"/>
<path d="M477.88 358.494C487.506 348.868 503.118 348.868 512.744 358.494C522.37 368.12 522.37 383.732 512.744 393.358L477.88 358.494Z" fill="#F4F4F4"/>
<path d="M512.74 393.354L477.876 428.218L512.74 463.082L547.604 428.218L512.74 393.354Z" fill="#181B24"/>
<path d="M530.173 410.787L547.605 428.218L512.741 463.082L495.309 445.65L506.12 434.839C506.13 434.829 506.134 434.818 506.144 434.815L519.333 421.626C519.34 421.612 519.351 421.608 519.358 421.601L530.173 410.787Z" fill="#F4F4F4"/>
<path d="M512.741 393.355L523.099 403.713L523.099 412.47C523.092 415.685 521.924 418.638 519.978 420.918C519.783 421.155 519.57 421.382 519.358 421.601C519.351 421.608 519.34 421.612 519.333 421.626L519.229 421.73C519.215 421.73 519.215 421.744 519.208 421.751C518.985 421.967 518.758 422.18 518.517 422.379C516.321 424.254 513.501 425.408 510.419 425.485C510.307 425.492 510.185 425.496 510.07 425.499L510.077 396.018L512.741 393.355Z" fill="#920928"/>
<path d="M510.021 425.548C510.017 425.663 510.011 425.788 510.011 425.893C509.927 428.982 508.776 431.799 506.901 433.995C506.702 434.236 506.489 434.462 506.273 434.686C506.266 434.693 506.252 434.693 506.249 434.71L506.144 434.815C506.134 434.818 506.13 434.829 506.12 434.839C505.9 435.052 505.673 435.264 505.436 435.46C503.156 437.405 500.207 438.569 496.989 438.58L488.238 438.58L477.876 428.218L480.537 425.558L509.54 425.548L510.021 425.548Z" fill="#920928"/>
<path d="M515.408 430.934L515.404 431.412L515.401 460.422L512.741 463.082L502.376 452.717L502.376 443.966C502.383 440.41 503.802 437.185 506.12 434.839C506.13 434.829 506.134 434.818 506.144 434.815L506.273 434.686C508.55 432.437 511.642 431.032 515.066 430.941C515.174 430.945 515.289 430.934 515.408 430.934Z" fill="#181B24"/>
</g>
</g>
</g>
<defs>
<filter id="filter0_i_282_187" x="129.203" y="219" width="627.62" height="628.71" filterUnits="userSpaceOnUse" color-interpolation-filters="sRGB">
<feFlood flood-opacity="0" result="BackgroundImageFix"/>
<feBlend mode="normal" in="SourceGraphic" in2="BackgroundImageFix" result="shape"/>
<feColorMatrix in="SourceAlpha" type="matrix" values="0 0 0 0 0 0 0 0 0 0 0 0 0 0 0 0 0 0 127 0" result="hardAlpha"/>
<feOffset dy="1.09046"/>
<feGaussianBlur stdDeviation="7.9058"/>
<feComposite in2="hardAlpha" operator="arithmetic" k2="-1" k3="1"/>
<feColorMatrix type="matrix" values="0 0 0 0 0 0 0 0 0 0 0 0 0 0 0 0 0 0 1 0"/>
<feBlend mode="normal" in2="shape" result="effect1_innerShadow_282_187"/>
</filter>
<linearGradient id="paint0_linear_282_187" x1="88.1146" y1="82.6953" x2="306.834" y2="304.862" gradientUnits="userSpaceOnUse">
<stop offset="0.359375"/>
<stop offset="1" stop-color="#920928"/>
</linearGradient>
<linearGradient id="paint1_linear_282_187" x1="-106.091" y1="341.997" x2="371.552" y2="221.816" gradientUnits="userSpaceOnUse">
<stop offset="0.359375"/>
<stop offset="1" stop-color="#920928"/>
</linearGradient>
<linearGradient id="paint2_linear_282_187" x1="-9.10173" y1="-8.23601" x2="194.831" y2="206.964" gradientUnits="userSpaceOnUse">
<stop offset="0.359375" stop-color="#F4F4F4"/>
<stop offset="1" stop-color="#DB0031"/>
</linearGradient>
<linearGradient id="paint3_linear_282_187" x1="-9.10173" y1="-8.23601" x2="194.831" y2="206.964" gradientUnits="userSpaceOnUse">
<stop offset="0.359375" stop-color="#F4F4F4"/>
<stop offset="1" stop-color="#DB0031"/>
</linearGradient>
<clipPath id="clip0_282_187">
<rect width="500" height="500" rx="30" fill="white"/>
</clipPath>
<clipPath id="clip1_282_187">
<rect width="295.83" height="295.929" fill="white" transform="translate(129.203 637.367) rotate(-45)"/>
</clipPath>
<clipPath id="clip2_282_187">
<rect width="295.83" height="295.929" fill="white" transform="translate(338.386 428.183) rotate(-45)"/>
</clipPath>
</defs>
</svg>
